<svg width="1440" height="1024" viewBox="0 0 1440 1024" fill="none" xmlns="http://www.w3.org/2000/svg">
<g opacity="0.75" filter="url(#filter0_f_5_538)">
<path d="M1082.96 851.578V1242.74C1082.97 1247.62 1082.02 1252.45 1080.15 1256.97C1078.28 1261.48 1075.54 1265.58 1072.08 1269.03C1068.62 1272.48 1064.51 1275.21 1059.99 1277.07C1055.47 1278.94 1050.62 1279.89 1045.73 1279.88H15.2282C10.3365 1279.89 5.49077 1278.94 0.969337 1277.07C-3.55209 1275.21 -7.66034 1272.48 -11.1194 1269.03C-14.5784 1265.58 -17.32 1261.48 -19.1872 1256.97C-21.0544 1252.45 -22.0104 1247.62 -21.9999 1242.74V215.445C-22.0104 210.565 -21.0544 205.73 -19.1872 201.219C-17.32 196.709 -14.5784 192.61 -11.1194 189.159C-7.66034 185.708 -3.55209 182.973 0.969337 181.11C5.49077 179.247 10.3365 178.294 15.2282 178.304H406.519V814.437C406.508 819.317 407.464 824.152 409.331 828.662C411.199 833.173 413.94 837.272 417.4 840.723C420.859 844.174 424.967 846.909 429.488 848.772C434.009 850.635 438.855 851.588 443.747 851.578H1082.96Z" fill="#4C00FF"/>
<path d="M1512.27 300C1512.27 628.735 1319.79 850.789 1082.96 851.579V437.5C1083.01 431.591 1081.85 425.734 1079.53 420.295C1077.21 414.857 1073.8 409.953 1069.5 405.891L854.048 190.949C849.928 186.72 845.004 183.353 839.563 181.046C834.123 178.74 828.276 177.539 822.365 177.515H407.311V-212.857C407.301 -217.738 408.257 -222.572 410.124 -227.083C411.991 -231.593 414.733 -235.692 418.192 -239.143C421.651 -242.594 425.759 -245.329 430.28 -247.192C434.802 -249.055 439.647 -250.008 444.539 -249.998H1025.14C1300.78 -250.788 1512.27 -29.5246 1512.27 300Z" fill="#FF5252"/>
<path d="M1069.5 405.1C1073.73 409.211 1077.11 414.124 1079.42 419.551C1081.73 424.979 1082.94 430.812 1082.96 436.71V850.789H444.539C439.647 850.799 434.802 849.846 430.28 847.983C425.759 846.12 421.651 843.384 418.192 839.934C414.733 836.483 411.991 832.384 410.124 827.873C408.257 823.363 407.301 818.528 407.311 813.648V177.515H822.365C828.288 177.461 834.158 178.627 839.61 180.938C845.061 183.249 849.976 186.657 854.048 190.949L1069.5 405.1Z" fill="#F7F1EE"/>
</g>
<defs>
<filter id="filter0_f_5_538" x="-52" y="-280" width="1594.27" height="1589.88" filterUnits="userSpaceOnUse" color-interpolation-filters="sRGB">
<feFlood flood-opacity="0" result="BackgroundImageFix"/>
<feBlend mode="normal" in="SourceGraphic" in2="BackgroundImageFix" result="shape"/>
<feGaussianBlur stdDeviation="15" result="effect1_foregroundBlur_5_538"/>
</filter>
</defs>
</svg>
