<svg width="36" height="36" viewBox="0 0 36 36" fill="none" xmlns="http://www.w3.org/2000/svg">
<path d="M25.9267 25.9216V35.1262C25.9269 35.241 25.9045 35.3548 25.8607 35.4609C25.8169 35.5671 25.7526 35.6635 25.6714 35.7447C25.5902 35.8259 25.4938 35.8903 25.3877 35.9341C25.2816 35.978 25.168 36.0004 25.0532 36.0002H0.87352C0.758739 36.0004 0.645041 35.978 0.53895 35.9341C0.43286 35.8903 0.336464 35.8259 0.255302 35.7447C0.17414 35.6635 0.109811 35.5671 0.0659993 35.4609C0.0221879 35.3548 -0.000243011 35.241 1.98546e-06 35.1262V10.9526C-0.000243011 10.8377 0.0221879 10.724 0.0659993 10.6178C0.109811 10.5117 0.17414 10.4153 0.255302 10.334C0.336464 10.2528 0.43286 10.1885 0.53895 10.1446C0.645041 10.1008 0.758739 10.0784 0.87352 10.0786H10.0547V25.0477C10.0545 25.1625 10.0769 25.2763 10.1207 25.3824C10.1645 25.4885 10.2289 25.585 10.31 25.6662C10.3912 25.7474 10.4876 25.8118 10.5937 25.8556C10.6998 25.8994 10.8135 25.9219 10.9282 25.9216H25.9267Z" fill="#4C00FF"/>
<path d="M36 12.9422C36 20.6778 31.4837 25.903 25.9267 25.9216V16.1778C25.928 16.0387 25.9005 15.9009 25.8462 15.7729C25.7918 15.645 25.7117 15.5296 25.6107 15.434L20.5555 10.3761C20.4588 10.2766 20.3433 10.1974 20.2156 10.1431C20.088 10.0888 19.9508 10.0606 19.8121 10.06H10.0733V0.874018C10.0731 0.759178 10.0955 0.64542 10.1393 0.539275C10.1831 0.433129 10.2475 0.336687 10.3286 0.255482C10.4098 0.174278 10.5062 0.10991 10.6123 0.0660756C10.7183 0.0222414 10.832 -0.000195478 10.9468 4.96461e-05H24.57C31.0377 -0.0185454 36 5.18808 36 12.9422Z" fill="#FF5252"/>
<path d="M25.6107 15.4152C25.7102 15.512 25.7894 15.6276 25.8436 15.7553C25.8979 15.883 25.9261 16.0203 25.9267 16.159V25.9029H10.9468C10.832 25.9031 10.7183 25.8807 10.6123 25.8368C10.5062 25.793 10.4098 25.7286 10.3286 25.6474C10.2475 25.5662 10.1831 25.4698 10.1393 25.3636C10.0955 25.2575 10.0731 25.1437 10.0733 25.0289V10.0599H19.8121C19.9511 10.0586 20.0888 10.086 20.2167 10.1404C20.3446 10.1948 20.46 10.275 20.5555 10.376L25.6107 15.4152Z" fill="black"/>
</svg>
