<svg width="194" height="39" viewBox="0 0 194 39" fill="none" xmlns="http://www.w3.org/2000/svg">
<g clip-path="url(#clip0_5_617)">
<path d="M189.021 17.7068V30.4213H184.348V18.5469C184.348 15.655 183.104 14.0394 180.679 14.0394C178.254 14.0394 176.653 15.7358 176.2 18.5792C176.071 19.2577 176.039 20.3078 176.039 22.5212V30.4052H171.367V10.2105H175.505C175.521 10.3882 175.618 12.1977 175.618 12.3107C175.619 12.3441 175.63 12.3765 175.648 12.4042C175.667 12.4319 175.693 12.4538 175.723 12.4673C175.754 12.4809 175.787 12.4855 175.82 12.4806C175.853 12.4758 175.884 12.4617 175.909 12.44C177.623 11.0829 179.515 9.82275 182.15 9.82275C186.482 9.82275 189.021 12.7469 189.021 17.7068Z" fill="black"/>
<path d="M163.833 10.2266L163.687 12.5369C163.685 12.5694 163.674 12.6006 163.655 12.6272C163.636 12.6538 163.61 12.6749 163.58 12.6881C163.551 12.7014 163.518 12.7063 163.485 12.7024C163.453 12.6986 163.422 12.686 163.396 12.6661C162.831 12.133 160.745 9.83887 157.205 9.83887C152.128 9.83887 148.394 14.2171 148.394 20.1624C148.394 26.1885 152.096 30.5829 157.205 30.5829C158.321 30.5756 159.423 30.3313 160.437 29.8662C161.452 29.401 162.356 28.7257 163.089 27.8849C163.113 27.857 163.145 27.837 163.181 27.8276C163.217 27.8181 163.255 27.8195 163.289 27.8317C163.324 27.8439 163.355 27.8663 163.377 27.8959C163.399 27.9255 163.411 27.9611 163.413 27.9979C163.364 28.6119 163.283 30.1467 162.766 31.4553C162.119 33.1032 160.664 34.638 157.738 34.638C155.329 34.638 153.195 33.7171 151.174 31.7461L148.733 35.0903C150.948 37.5945 154.44 39 158.239 39C164.35 39 168.02 34.8157 168.02 27.9818V10.2266H163.833ZM158.207 26.3501C155.184 26.3501 153.05 23.7328 153.05 20.1624C153.05 16.592 155.184 14.0394 158.207 14.0394C161.23 14.0394 163.364 16.5758 163.364 20.1624C163.364 23.749 161.214 26.3501 158.207 26.3501Z" fill="black"/>
<path d="M138.629 24.4275C138.629 28.2564 135.412 30.8252 130.691 30.8252C126.989 30.8252 123.691 29.3873 121.719 27.3355L123.255 23.6843C124.742 25.0253 127.135 26.9478 130.546 26.9478C132.922 26.9478 134.297 25.8977 134.297 24.5729C134.297 23.0381 132.405 22.6342 130.142 22.198C126.925 21.5195 122.657 20.4209 122.657 16.0427C122.657 12.3753 125.631 9.855 130.029 9.855C133.055 9.84942 135.989 10.9009 138.322 12.8277L136.026 16.0427C134.086 14.5079 132.049 13.7485 130.029 13.7485C128.008 13.7485 127.005 14.5886 127.005 15.8003C127.005 17.4967 129.188 17.9329 130.788 18.256C134.814 19.0315 138.629 20.2432 138.629 24.4275Z" fill="black"/>
<path d="M70.3088 9.82275C64.602 9.82275 60.4957 14.2494 60.4957 20.324C60.4957 26.3986 64.602 30.8252 70.3088 30.8252C76.0157 30.8252 80.1382 26.3986 80.1382 20.324C80.1382 14.2494 76.0318 9.82275 70.3088 9.82275ZM70.3088 26.5924C67.2857 26.5924 65.1517 24.0237 65.1517 20.3078C65.1517 16.592 67.2372 14.0233 70.3088 14.0233C73.3805 14.0233 75.466 16.592 75.466 20.3078C75.466 24.0237 73.332 26.5924 70.3088 26.5924Z" fill="black"/>
<path d="M81.7872 20.324C81.7872 14.3302 85.8935 9.82275 91.374 9.82275C95.7228 9.82275 98.9077 12.0038 100.395 16.1073L96.2563 17.6745C95.1247 15.138 93.6373 14.0556 91.3902 14.0556C88.5772 14.0556 86.4755 16.7051 86.4755 20.3402C86.4755 23.9752 88.561 26.6247 91.3902 26.6247C93.6535 26.6247 95.1247 25.5423 96.2563 23.0059L100.395 24.573C98.9077 28.6765 95.7228 30.8576 91.374 30.8576C85.8935 30.8252 81.7872 26.3178 81.7872 20.324Z" fill="black"/>
<path d="M56.8097 0.840173C56.7193 0.83853 56.63 0.860824 56.551 0.904795L53.5117 2.52037C53.482 2.53551 53.4571 2.55868 53.44 2.58725C53.4228 2.61581 53.4141 2.64862 53.4147 2.68193V12.2946C53.4132 12.3295 53.4018 12.3632 53.3819 12.3919C53.3619 12.4205 53.3342 12.4429 53.3021 12.4565C53.2699 12.47 53.2345 12.4741 53.2 12.4684C53.1656 12.4626 53.1335 12.4472 53.1075 12.4239C52.6548 12.0361 51.604 11.0506 50.149 10.3721C49.3892 10.0166 48.2737 9.82277 47.2552 9.82277C42.1465 9.82277 38.4443 14.2495 38.4443 20.324C38.4443 26.3986 42.1465 30.8253 47.2552 30.8253C49.9388 30.8253 51.9597 29.4197 53.1883 28.1596L53.3985 27.9495C53.4221 27.9233 53.453 27.9048 53.4872 27.8964C53.5214 27.8879 53.5574 27.8899 53.5904 27.9021C53.6235 27.9142 53.6522 27.9361 53.6727 27.9647C53.6933 27.9933 53.7047 28.0274 53.7057 28.0626L53.8673 30.4214H58.0868V0.969419C58.0871 0.952386 58.0839 0.93548 58.0774 0.919702C58.071 0.903923 58.0615 0.88959 58.0494 0.877545C58.0374 0.865499 58.023 0.855986 58.0073 0.849567C57.9915 0.843149 57.9746 0.839956 57.9575 0.840173H56.8097ZM48.2575 26.5925C45.202 26.5925 43.1003 24.0237 43.1003 20.3079C43.1003 16.592 45.2505 14.0394 48.2575 14.0394C51.2645 14.0394 53.4147 16.6082 53.4147 20.324C53.4147 24.0398 51.3292 26.5925 48.2575 26.5925Z" fill="black"/>
<path d="M144.126 10.2912L141.2 11.8422C141.17 11.8573 141.145 11.8805 141.128 11.9091C141.111 11.9376 141.102 11.9704 141.103 12.0037V30.4213H145.775V10.3397C145.775 10.3227 145.772 10.3058 145.765 10.29C145.759 10.2742 145.75 10.2599 145.737 10.2478C145.725 10.2358 145.711 10.2263 145.695 10.2199C145.679 10.2134 145.663 10.2102 145.646 10.2105H144.385C144.294 10.2201 144.206 10.2475 144.126 10.2912Z" fill="black"/>
<path d="M143.431 6.94691C143.987 6.94691 144.531 6.78204 144.993 6.47316C145.456 6.16427 145.817 5.72523 146.03 5.21157C146.242 4.69791 146.298 4.13269 146.19 3.58739C146.081 3.04209 145.813 2.5412 145.42 2.14806C145.026 1.75492 144.525 1.48719 143.979 1.37872C143.434 1.27026 142.868 1.32592 142.354 1.53869C141.84 1.75146 141.401 2.11176 141.092 2.57405C140.783 3.03633 140.618 3.57983 140.618 4.13581C140.618 4.88123 140.915 5.596 141.442 6.12309C141.97 6.65018 142.685 6.94649 143.431 6.94691Z" fill="black"/>
<path d="M120.037 10.2104V21.1802C120.037 29.5004 115.381 30.809 111.227 30.809C107.072 30.809 102.416 29.4843 102.416 21.1802V10.2104H107.072V22.3434C107.072 23.5228 107.363 26.5924 111.227 26.5924C115.09 26.5924 115.381 23.5389 115.381 22.3434V10.2104H120.037Z" fill="black"/>
</g>
<defs>
<clipPath id="clip0_5_617">
<rect width="194" height="39" fill="white"/>
</clipPath>
</defs>
</svg>
